
<svg
  version="1.0"
  xmlns="http://www.w3.org/2000/svg"
  xmlns:xlink="http://www.w3.org/1999/xlink"
  width="2400"
  height="1800"
>
  
  <rect
    x="0"
    y="0"
    width="100%"
    height="100%"
    fill="#ffffff"
    fill-opacity="1"
  ></rect>
  <svg
    version="1.0"
    xmlns="http://www.w3.org/2000/svg"
    xmlns:xlink="http://www.w3.org/1999/xlink"
    x="0"
    y="0"
    width="2400"
    height="1800"
    viewBox="0 0 340.000000 250.000000"
    preserveAspectRatio="xMidYMid meet"
    color-interpolation-filters="sRGB"
  >
    <defs><linearGradient id="92" x1="0%" y1="0%" x2="100%" y2="0%"><stop offset="0%" stop-color="#fa71cd"/> <stop offset="100%" stop-color="#9b59b6"/></linearGradient><linearGradient id="93" x1="0%" y1="0%" x2="100%" y2="0%"><stop offset="0%" stop-color="#f9d423"/> <stop offset="100%" stop-color="#f83600"/></linearGradient><linearGradient id="94" x1="0%" y1="0%" x2="100%" y2="0%"><stop offset="0%" stop-color="#0064d2"/> <stop offset="100%" stop-color="#1cb0f6"/></linearGradient><linearGradient id="95" x1="0%" y1="0%" x2="100%" y2="0%"><stop offset="0%" stop-color="#f00978"/> <stop offset="100%" stop-color="#3f51b1"/></linearGradient><linearGradient id="96" x1="0%" y1="0%" x2="100%" y2="0%"><stop offset="0%" stop-color="#7873f5"/> <stop offset="100%" stop-color="#ec77ab"/></linearGradient><linearGradient id="97" x1="0%" y1="0%" x2="100%" y2="0%"><stop offset="0%" stop-color="#f9d423"/> <stop offset="100%" stop-color="#e14fad"/></linearGradient><linearGradient id="98" x1="0%" y1="0%" x2="100%" y2="0%"><stop offset="0%" stop-color="#009efd"/> <stop offset="100%" stop-color="#2af598"/></linearGradient><linearGradient id="99" x1="0%" y1="0%" x2="100%" y2="0%"><stop offset="0%" stop-color="#ffcc00"/> <stop offset="100%" stop-color="#00b140"/></linearGradient><linearGradient id="100" x1="0%" y1="0%" x2="100%" y2="0%"><stop offset="0%" stop-color="#d51007"/> <stop offset="100%" stop-color="#ff8177"/></linearGradient><linearGradient id="102" x1="0%" y1="0%" x2="100%" y2="0%"><stop offset="0%" stop-color="#a2b6df"/> <stop offset="100%" stop-color="#0c3483"/></linearGradient><linearGradient id="103" x1="0%" y1="0%" x2="100%" y2="0%"><stop offset="0%" stop-color="#7ac5d8"/> <stop offset="100%" stop-color="#eea2a2"/></linearGradient><linearGradient id="104" x1="0%" y1="0%" x2="100%" y2="0%"><stop offset="0%" stop-color="#00ecbc"/> <stop offset="100%" stop-color="#007adf"/></linearGradient><linearGradient id="105" x1="0%" y1="0%" x2="100%" y2="0%"><stop offset="0%" stop-color="#b88746"/> <stop offset="100%" stop-color="#fdf5a6"/></linearGradient></defs> <g fill="#FFFFFF" class="iconlinesvg-g iconlinesvg" transform="translate(131.98696374893188,104.17415237426758)"><g class="tp-name" transform="translate(0,0)"><g transform="translate(0, 0)"><g fill="#FFFFFF" transform="scale(1)"><path d="M13.07-2.99L13.04-9.65Q13.04-11.71 11.45-11.71L11.45-11.71Q11.17-11.71 10.93-11.63Q10.70-11.56 10.50-11.45Q10.30-11.35 10.14-11.15Q9.98-10.95 9.85-10.72Q9.72-10.48 9.67-10.16Q9.62-9.83 9.62-9.44L9.62-9.44L9.62-5.47Q9.62-2.52 8.64-1.28Q7.67-0.04 5.65-0.04L5.65-0.04Q3.64-0.04 2.70-1.17Q1.76-2.31 1.76-5.19L1.76-5.19L1.69-20.53Q1.69-22.76 2.77-23.81Q3.85-24.85 5.65-24.85L5.65-24.85Q6.63-24.85 7.26-24.73Q7.89-24.60 8.46-24.19Q9.04-23.77 9.33-22.94Q9.62-22.11 9.62-20.85L9.62-20.85L9.62-15.63Q12.28-17.25 16.10-17.25L16.10-17.25Q17.83-17.25 18.87-16.37Q19.92-15.49 20.42-13.58Q20.93-11.67 20.93-8.57L20.93-8.57Q20.93-6.34 20.82-4.92Q20.71-3.49 20.48-2.47Q20.24-1.44 19.74-0.94Q19.23-0.43 18.57-0.22Q17.90 0 16.86 0L16.86 0Q14.84 0 13.96-0.74Q13.07-1.48 13.07-2.99L13.07-2.99Z" transform="translate(-1.6927966101694916, 24.85169491525424)"/></g></g><g transform="translate(23, 2.3723062738321605)"><g><g fill="#ff7600" class="imagesvg"><rect fill="#FFFFFF" fill-opacity="0" stroke-width="2" x="0" y="0" width="20.359201011657714" height="20.359201011657714" class="image-rect"/> <svg viewBox="0 0 60 60" x="0" y="0" width="20.359201011657714" height="20.359201011657714" class="image-svg-svg bn" style="overflow: visible;"><g hollow-target="iconBnFill" mask="url(#6ff7c687-33e3-49e3-ba6e-6a874beacb6a)"><g><svg xmlns="http://www.w3.org/2000/svg" viewBox="0 0 64 64" style="overflow: visible;" width="60" height="60" x="0" y="0" filtersec="colorsf1387597735" filter="url(#knsZN_HffI9_eLQ8kINAK)"><g transform="scale(1, 1) skewX(0)"><path d="M64 32v32H32C14.327 64 0 49.673 0 32 0 14.327 14.327 0 32 0c17.673 0 32 14.327 32 32z" fill-rule="evenodd" fill="#000000"/></g><defs><filter id="knsZN_HffI9_eLQ8kINAK"><feColorMatrix type="matrix" values="0 0 0 0 0.99609375  0 0 0 0 0.4609375  0 0 0 0 0  0 0 0 1 0"/></filter></defs></svg></g> <g filter="url(#colors3106905317)"><svg xmlns="http://www.w3.org/2000/svg" xmlns:xlink="http://www.w3.org/1999/xlink" version="1.1" x="10" y="10" viewBox="5.126478672027588 13.13599967956543 89.74890899658203 73.72770690917969" enable-background="new 0 0 100 100" xml:space="preserve" width="40" height="40" class="image-svg-icon"><path d="M58.221,13.136c9.277,0.013,16.361,3.199,22.121,10.589c8.739,11.72,9.107,12.654,10.191,15.973  c1.084,3.319,1.287,1.49,3.523,5.013c2.236,3.523-0.42,8.39-4.161,12.684c-4.564,5.238-13.82,11.991-18.224,14.43  c-4.404,2.439-13.668,5.926-19.094,7.943c-5.425,2.017-20.728,7.165-24.902,7.095c-4.173-0.07-10.294-0.904-15.094-4.173  c-4.799-3.269-7.66-6.486-7.443-10.434c0.218-3.948,8.34-7.02,7.998-15.49c-0.412-10.232,5.358-21.6,10.466-27.667  c7.819-9.286,21.249-15.511,29.545-15.827C54.838,13.186,56.529,13.149,58.221,13.136z M67.479,22.129  c-0.574,0.014-1.15,0.006-1.723,0.042c-2.157,0.136-4.285,0.577-6.342,1.231c-7.141,2.277-12.974,5.85-17.69,10.453  c-3.619,3.532-6.339,7.398-8.554,11.654c-3.264,6.27-3.659,12.201-1.5,17.024c1.931,4.313,7.985,8.525,12.712,9.081  c2.138,0.251,4.06,0.004,6.762-0.671c1.016-0.254,2.032-0.548,3.068-0.706l0.112,0.39c0.053,0.187,0.107,0.383,0.163,0.587  c0.163,0.598,0.33,1.24,0.492,1.882c0.057,0.225,0.109,0.433,0.155,0.621c0.028,0.112,0.047,0.192,0.057,0.234l1.254-0.303  c-0.011-0.044-0.03-0.126-0.059-0.239c-0.047-0.19-0.099-0.401-0.157-0.628c-0.164-0.649-0.333-1.299-0.499-1.906  c-0.057-0.208-0.112-0.408-0.166-0.599c-0.093-0.328-0.181-0.626-0.262-0.891l-0.14-0.454h-0.476c-0.495,0-1.056,0.083-1.792,0.248  c-0.283,0.063-0.581,0.136-0.996,0.242c0.09-0.023-0.814,0.208-1.068,0.272c-2.562,0.64-4.35,0.87-6.298,0.641  c-4.288-0.504-9.945-4.441-11.685-8.327c-1.99-4.446-1.623-9.966,1.467-15.901c2.157-4.142,4.8-7.899,8.311-11.327  c4.575-4.465,10.234-7.932,17.181-10.147c4.769-1.521,9.098-1.572,13.014-0.388c3.197,0.967,6.009,2.721,8.442,5.04  c1.353,1.289,2.502,2.671,3.452,4.053c0.331,0.482,0.613,0.929,0.847,1.329c0.081,0.139,0.15,0.261,0.207,0.366  c0.033,0.061,0.054,0.101,0.063,0.119l1.151-0.582c-0.053-0.106-0.156-0.294-0.307-0.553c-0.249-0.426-0.548-0.9-0.898-1.409  c-0.997-1.451-2.203-2.901-3.625-4.256c-2.571-2.45-5.554-4.311-8.959-5.341C71.329,22.485,69.423,22.134,67.479,22.129z   M58.034,15.679c-9.399,0.051-18.018,4-26.245,10.119c-6.83,5.08-12.453,13.534-14.735,20.972  c-2.282,7.438-1.084,18.936-1.084,18.936l7.038,6.287c0,0-0.634-11.219,1.537-19.707s5.942-16.489,12.052-22.39  c6.604-6.377,13.017-10.06,22.132-10.986c11.61-1.18,18.776,2.269,18.776,2.269S69.473,15.617,58.034,15.679z"/></svg></g></g><mask id="6ff7c687-33e3-49e3-ba6e-6a874beacb6a"><g fill="white"><svg xmlns="http://www.w3.org/2000/svg" viewBox="0 0 64 64" style="overflow: visible;" width="60" height="60" x="0" y="0" filtersec="colorsf1387597735"><g transform="scale(1, 1) skewX(0)"><path d="M64 32v32H32C14.327 64 0 49.673 0 32 0 14.327 14.327 0 32 0c17.673 0 32 14.327 32 32z" fill-rule="evenodd"/></g><defs/></svg></g> <g fill="black"><svg xmlns="http://www.w3.org/2000/svg" xmlns:xlink="http://www.w3.org/1999/xlink" version="1.1" x="10" y="10" viewBox="5.126478672027588 13.13599967956543 89.74890899658203 73.72770690917969" enable-background="new 0 0 100 100" xml:space="preserve" width="40" height="40" class="image-svg-icon"><path d="M58.221,13.136c9.277,0.013,16.361,3.199,22.121,10.589c8.739,11.72,9.107,12.654,10.191,15.973  c1.084,3.319,1.287,1.49,3.523,5.013c2.236,3.523-0.42,8.39-4.161,12.684c-4.564,5.238-13.82,11.991-18.224,14.43  c-4.404,2.439-13.668,5.926-19.094,7.943c-5.425,2.017-20.728,7.165-24.902,7.095c-4.173-0.07-10.294-0.904-15.094-4.173  c-4.799-3.269-7.66-6.486-7.443-10.434c0.218-3.948,8.34-7.02,7.998-15.49c-0.412-10.232,5.358-21.6,10.466-27.667  c7.819-9.286,21.249-15.511,29.545-15.827C54.838,13.186,56.529,13.149,58.221,13.136z M67.479,22.129  c-0.574,0.014-1.15,0.006-1.723,0.042c-2.157,0.136-4.285,0.577-6.342,1.231c-7.141,2.277-12.974,5.85-17.69,10.453  c-3.619,3.532-6.339,7.398-8.554,11.654c-3.264,6.27-3.659,12.201-1.5,17.024c1.931,4.313,7.985,8.525,12.712,9.081  c2.138,0.251,4.06,0.004,6.762-0.671c1.016-0.254,2.032-0.548,3.068-0.706l0.112,0.39c0.053,0.187,0.107,0.383,0.163,0.587  c0.163,0.598,0.33,1.24,0.492,1.882c0.057,0.225,0.109,0.433,0.155,0.621c0.028,0.112,0.047,0.192,0.057,0.234l1.254-0.303  c-0.011-0.044-0.03-0.126-0.059-0.239c-0.047-0.19-0.099-0.401-0.157-0.628c-0.164-0.649-0.333-1.299-0.499-1.906  c-0.057-0.208-0.112-0.408-0.166-0.599c-0.093-0.328-0.181-0.626-0.262-0.891l-0.14-0.454h-0.476c-0.495,0-1.056,0.083-1.792,0.248  c-0.283,0.063-0.581,0.136-0.996,0.242c0.09-0.023-0.814,0.208-1.068,0.272c-2.562,0.64-4.35,0.87-6.298,0.641  c-4.288-0.504-9.945-4.441-11.685-8.327c-1.99-4.446-1.623-9.966,1.467-15.901c2.157-4.142,4.8-7.899,8.311-11.327  c4.575-4.465,10.234-7.932,17.181-10.147c4.769-1.521,9.098-1.572,13.014-0.388c3.197,0.967,6.009,2.721,8.442,5.04  c1.353,1.289,2.502,2.671,3.452,4.053c0.331,0.482,0.613,0.929,0.847,1.329c0.081,0.139,0.15,0.261,0.207,0.366  c0.033,0.061,0.054,0.101,0.063,0.119l1.151-0.582c-0.053-0.106-0.156-0.294-0.307-0.553c-0.249-0.426-0.548-0.9-0.898-1.409  c-0.997-1.451-2.203-2.901-3.625-4.256c-2.571-2.45-5.554-4.311-8.959-5.341C71.329,22.485,69.423,22.134,67.479,22.129z   M58.034,15.679c-9.399,0.051-18.018,4-26.245,10.119c-6.83,5.08-12.453,13.534-14.735,20.972  c-2.282,7.438-1.084,18.936-1.084,18.936l7.038,6.287c0,0-0.634-11.219,1.537-19.707s5.942-16.489,12.052-22.39  c6.604-6.377,13.017-10.06,22.132-10.986c11.61-1.18,18.776,2.269,18.776,2.269S69.473,15.617,58.034,15.679z"/></svg></g></mask></svg> <defs><filter id="colors3106905317"><feColorMatrix type="matrix" values="0 0 0 0 0.9921875  0 0 0 0 0.9453125  0 0 0 0 0.890625  0 0 0 1 0" class="icon-feColorMatrix "/></filter> <filter id="colorsf1387597735"><feColorMatrix type="matrix" values="0 0 0 0 0.99609375  0 0 0 0 0.99609375  0 0 0 0 0.99609375  0 0 0 1 0" class="icon-fecolormatrix"/></filter> <filter id="colorsb9500455405"><feColorMatrix type="matrix" values="0 0 0 0 0  0 0 0 0 0  0 0 0 0 0  0 0 0 1 0" class="icon-fecolormatrix"/></filter></defs></g></g></g><g transform="translate(47, 0)"><g fill="#FFFFFF" transform="scale(1)"><path d="M21.25-5.40L21.25-5.40Q22.19-5.40 22.42-5.85Q22.65-6.30 22.65-7.53L22.65-7.53L22.69-13.97Q22.69-15.63 23.63-16.41Q24.56-17.18 26.80-17.18L26.80-17.18Q27.77-17.18 28.38-16.96Q28.99-16.75 29.44-16.26Q29.89-15.78 30.13-14.78Q30.36-13.79 30.47-12.41Q30.58-11.02 30.58-8.86L30.58-8.86Q30.58-6.95 29.98-5.38Q29.39-3.82 28.47-2.85Q27.55-1.87 26.33-1.21Q25.10-0.54 23.88-0.27Q22.65 0 21.43 0L21.43 0Q18.51 0 16.06-1.84L16.06-1.84Q13.65 0 10.73 0L10.73 0Q9.51 0 8.30-0.27Q7.10-0.54 5.85-1.21Q4.61-1.87 3.67-2.85Q2.74-3.82 2.14-5.38Q1.55-6.95 1.55-8.86L1.55-8.86Q1.55-12.43 1.87-14.14Q2.20-15.85 2.95-16.51Q3.71-17.18 5.33-17.18L5.33-17.18Q6.84-17.18 7.74-16.82Q8.64-16.46 9.02-15.78Q9.40-15.09 9.40-13.97L9.40-13.97L9.44-7.56Q9.44-7.02 9.45-6.79Q9.47-6.56 9.54-6.21Q9.62-5.87 9.76-5.74Q9.90-5.62 10.16-5.51Q10.41-5.40 10.81-5.40L10.81-5.40Q12.25-5.40 12.50-6.23L12.50-6.23Q12.17-8.39 12.17-10.88L12.17-10.88Q12.17-12.97 12.32-14.14Q12.46-15.31 12.95-16.03Q13.43-16.75 14.15-16.96Q14.88-17.18 16.21-17.18L16.21-17.18Q17.40-17.18 18.08-16.96Q18.76-16.75 19.20-16.03Q19.63-15.31 19.77-14.14Q19.92-12.97 19.92-10.88L19.92-10.88Q19.92-8.36 19.63-6.19L19.63-6.19Q19.88-5.40 21.25-5.40Z" transform="translate(-1.548728813559322, 24.85169491525424)"/></g></g></g> <g fill-rule="" class="tp-slogan" fill="#FFFFFF" transform="translate(-4.207965850830078,30.850000381469727)"> <g transform="scale(1, 1)"><g transform="scale(1)"><path d="M4.36-1.00L4.34-3.22Q4.34-3.90 3.82-3.90L3.82-3.90Q3.72-3.90 3.64-3.88Q3.56-3.85 3.50-3.82Q3.43-3.78 3.38-3.71Q3.32-3.65 3.28-3.57Q3.24-3.49 3.22-3.38Q3.20-3.28 3.20-3.14L3.20-3.14L3.20-1.82Q3.20-0.84 2.88-0.43Q2.56-0.01 1.88-0.01L1.88-0.01Q1.21-0.01 0.90-0.39Q0.59-0.77 0.59-1.73L0.59-1.73L0.56-6.84Q0.56-7.58 0.92-7.93Q1.28-8.28 1.88-8.28L1.88-8.28Q2.21-8.28 2.42-8.24Q2.63-8.20 2.82-8.06Q3.01-7.92 3.11-7.64Q3.20-7.37 3.20-6.95L3.20-6.95L3.20-5.21Q4.09-5.75 5.36-5.75L5.36-5.75Q5.94-5.75 6.29-5.45Q6.64-5.16 6.80-4.52Q6.97-3.89 6.97-2.86L6.97-2.86Q6.97-2.11 6.94-1.64Q6.90-1.16 6.82-0.82Q6.74-0.48 6.58-0.31Q6.41-0.14 6.19-0.07Q5.96 0 5.62 0L5.62 0Q4.94 0 4.65-0.25Q4.36-0.49 4.36-1.00L4.36-1.00ZM10.52-3.36L10.52-3.36Q11.35-3.37 11.42-3.37L11.42-3.37Q11.60-3.37 11.69-3.59L11.69-3.59Q11.75-3.74 11.75-4.02L11.75-4.02Q11.75-4.78 11.29-4.78L11.29-4.78Q11.12-4.78 10.96-4.60Q10.80-4.42 10.68-4.09Q10.56-3.76 10.52-3.36ZM11.34 0.07L11.34 0.07Q9.88 0.07 8.92-0.68Q7.97-1.44 7.97-2.75L7.97-2.75Q7.97-4.16 8.91-4.99Q9.85-5.81 11.34-5.81L11.34-5.81Q12.74-5.81 13.40-5.31Q14.05-4.81 14.05-3.95L14.05-3.95Q14.05-3.78 14.01-3.62Q13.97-3.47 13.88-3.32Q13.79-3.17 13.64-3.04Q13.49-2.92 13.30-2.81Q13.10-2.71 12.84-2.66Q12.58-2.60 12.28-2.60L12.28-2.60L10.58-2.59Q10.70-2.21 11.02-1.99Q11.33-1.76 11.81-1.76L11.81-1.76Q12.32-1.76 12.86-1.90L12.86-1.90Q13.09-1.96 13.36-2.09Q13.63-2.22 13.75-2.22L13.75-2.22Q13.96-2.22 14.07-2.10Q14.18-1.98 14.18-1.80L14.18-1.80Q14.18-1.58 13.99-1.28Q13.80-0.97 13.46-0.67Q13.12-0.36 12.55-0.14Q11.99 0.07 11.34 0.07ZM17.82-6.89L17.82-1.81Q17.82-0.84 17.50-0.42Q17.17 0 16.50 0L16.50 0Q15.83 0 15.52-0.38Q15.20-0.76 15.20-1.72L15.20-1.72L15.18-6.78Q15.18-7.09 15.25-7.33Q15.31-7.57 15.43-7.74Q15.54-7.91 15.71-8.02Q15.88-8.12 16.07-8.17Q16.27-8.22 16.50-8.22L16.50-8.22Q17.16-8.22 17.49-7.96Q17.82-7.69 17.82-6.89L17.82-6.89ZM21.58-3.97L21.58-1.74Q21.78-1.40 22.12-1.40L22.12-1.40Q22.44-1.40 22.62-1.84Q22.80-2.27 22.80-2.82L22.80-2.82Q22.80-3.41 22.61-3.86Q22.42-4.32 22.10-4.32L22.10-4.32Q21.78-4.32 21.58-3.97L21.58-3.97ZM21.58-0.34L21.58 0.70Q21.58 1.67 21.25 2.08Q20.93 2.50 20.26 2.50L20.26 2.50Q19.58 2.50 19.27 2.12Q18.96 1.74 18.96 0.78L18.96 0.78L18.94-4.28Q18.94-5.03 19.30-5.38Q19.66-5.72 20.26-5.72L20.26-5.72Q20.72-5.72 21.01-5.61Q21.30-5.50 21.44-5.16L21.44-5.16Q22.27-5.81 23.22-5.81L23.22-5.81Q24.18-5.81 24.79-5.00Q25.40-4.20 25.40-2.82L25.40-2.82Q25.40-1.48 24.78-0.70Q24.16 0.07 23.21 0.07L23.21 0.07Q22.30 0.07 21.58-0.34L21.58-0.34ZM28.86-3.36L28.86-3.36Q29.69-3.37 29.76-3.37L29.76-3.37Q29.94-3.37 30.02-3.59L30.02-3.59Q30.08-3.74 30.08-4.02L30.08-4.02Q30.08-4.78 29.63-4.78L29.63-4.78Q29.46-4.78 29.30-4.60Q29.14-4.42 29.02-4.09Q28.90-3.76 28.86-3.36ZM29.68 0.07L29.68 0.07Q28.21 0.07 27.26-0.68Q26.30-1.44 26.30-2.75L26.30-2.75Q26.30-4.16 27.25-4.99Q28.19-5.81 29.68-5.81L29.68-5.81Q31.08-5.81 31.73-5.31Q32.39-4.81 32.39-3.95L32.39-3.95Q32.39-3.78 32.35-3.62Q32.30-3.47 32.21-3.32Q32.12-3.17 31.97-3.04Q31.82-2.92 31.63-2.81Q31.44-2.71 31.18-2.66Q30.91-2.60 30.61-2.60L30.61-2.60L28.92-2.59Q29.04-2.21 29.35-1.99Q29.66-1.76 30.14-1.76L30.14-1.76Q30.66-1.76 31.20-1.90L31.20-1.90Q31.43-1.96 31.70-2.09Q31.97-2.22 32.09-2.22L32.09-2.22Q32.29-2.22 32.41-2.10Q32.52-1.98 32.52-1.80L32.52-1.80Q32.52-1.58 32.33-1.28Q32.14-0.97 31.79-0.67Q31.45-0.36 30.89-0.14Q30.32 0.07 29.68 0.07ZM36.10-3.70L36.10-1.28Q36.10-0.56 35.80-0.28Q35.50 0 34.73 0L34.73 0Q34.02 0 33.77-0.33Q33.52-0.66 33.52-1.42L33.52-1.42L33.52-4.37Q33.52-4.78 33.66-5.08Q33.80-5.39 34.08-5.56Q34.36-5.72 34.73-5.72L34.73-5.72Q35.64-5.72 35.93-5.20L35.93-5.20Q36.62-5.72 37.27-5.72L37.27-5.72Q38.53-5.72 38.53-4.52L38.53-4.52Q38.53-4.04 38.26-3.74Q37.98-3.44 37.54-3.44L37.54-3.44Q37.27-3.44 37.11-3.55Q36.95-3.66 36.81-3.77Q36.67-3.88 36.49-3.88L36.49-3.88Q36.23-3.88 36.10-3.70L36.10-3.70ZM45.67 0.08L45.67 0.08Q44.74 0.08 43.99-0.25Q43.24-0.59 42.79-1.26Q42.34-1.93 42.34-2.83L42.34-2.83Q42.34-4.20 43.27-5.00Q44.21-5.81 45.67-5.81Q47.14-5.81 48.06-5.00Q48.98-4.20 48.98-2.83L48.98-2.83Q48.98-1.48 48.04-0.70Q47.10 0.08 45.67 0.08ZM46.30-2.84L46.30-2.84Q46.30-3.47 46.14-3.94Q45.98-4.42 45.68-4.42L45.68-4.42Q45.48-4.42 45.32-4.18Q45.17-3.94 45.10-3.59Q45.02-3.24 45.02-2.84L45.02-2.84Q45.02-2.23 45.19-1.77Q45.36-1.31 45.67-1.31Q45.98-1.31 46.14-1.76Q46.30-2.22 46.30-2.84ZM53.69-1.00L53.68-3.23Q53.68-3.90 53.15-3.90L53.15-3.90Q52.90-3.90 52.73-3.69Q52.57-3.48 52.55-3.13L52.55-3.13L52.55-1.28Q52.55-0.55 52.25-0.28Q51.95 0 51.19 0L51.19 0Q50.48 0 50.23-0.33Q49.97-0.66 49.97-1.42L49.97-1.42L49.97-4.37Q49.97-4.98 50.30-5.35Q50.63-5.72 51.18-5.72L51.18-5.72Q51.64-5.72 51.95-5.59Q52.26-5.46 52.42-5.14L52.42-5.14Q53.35-5.75 54.70-5.75L54.70-5.75Q55.55-5.75 55.93-5.08Q56.30-4.40 56.30-2.87L56.30-2.87Q56.30-2.11 56.27-1.64Q56.23-1.16 56.15-0.82Q56.08-0.48 55.91-0.31Q55.74-0.14 55.52-0.07Q55.30 0 54.95 0L54.95 0Q54.28 0 53.98-0.25Q53.69-0.50 53.69-1.00L53.69-1.00ZM67.15-1.80L67.15-1.80Q67.46-1.80 67.54-1.95Q67.62-2.10 67.62-2.51L67.62-2.51L67.63-4.66Q67.63-5.21 67.94-5.47Q68.26-5.72 69.00-5.72L69.00-5.72Q69.32-5.72 69.53-5.65Q69.73-5.58 69.88-5.42Q70.03-5.26 70.11-4.93Q70.19-4.60 70.22-4.13Q70.26-3.67 70.26-2.95L70.26-2.95Q70.26-2.32 70.06-1.79Q69.86-1.27 69.56-0.95Q69.25-0.62 68.84-0.40Q68.44-0.18 68.03-0.09Q67.62 0 67.21 0L67.21 0Q66.24 0 65.42-0.61L65.42-0.61Q64.62 0 63.65 0L63.65 0Q63.24 0 62.84-0.09Q62.44-0.18 62.02-0.40Q61.61-0.62 61.30-0.95Q60.98-1.27 60.79-1.79Q60.59-2.32 60.59-2.95L60.59-2.95Q60.59-4.14 60.70-4.71Q60.80-5.28 61.06-5.50Q61.31-5.72 61.85-5.72L61.85-5.72Q62.35-5.72 62.65-5.60Q62.95-5.48 63.08-5.26Q63.20-5.03 63.20-4.66L63.20-4.66L63.22-2.52Q63.22-2.34 63.22-2.26Q63.23-2.18 63.25-2.07Q63.28-1.96 63.32-1.91Q63.37-1.87 63.46-1.84Q63.54-1.80 63.67-1.80L63.67-1.80Q64.15-1.80 64.24-2.08L64.24-2.08Q64.13-2.80 64.13-3.62L64.13-3.62Q64.13-4.32 64.18-4.71Q64.22-5.10 64.39-5.34Q64.55-5.58 64.79-5.65Q65.03-5.72 65.47-5.72L65.47-5.72Q65.87-5.72 66.10-5.65Q66.32-5.58 66.47-5.34Q66.61-5.10 66.66-4.71Q66.71-4.32 66.71-3.62L66.71-3.62Q66.71-2.78 66.61-2.06L66.61-2.06Q66.70-1.80 67.15-1.80ZM75.08-1.73L75.08-3.97Q74.88-4.32 74.56-4.32L74.56-4.32Q74.24-4.32 74.05-3.86Q73.86-3.41 73.86-2.82L73.86-2.82Q73.86-2.27 74.04-1.84Q74.22-1.40 74.54-1.40L74.54-1.40Q74.88-1.40 75.08-1.73L75.08-1.73ZM73.45 0.07L73.45 0.07Q72.50 0.07 71.88-0.70Q71.26-1.48 71.26-2.82L71.26-2.82Q71.26-4.19 71.87-5.00Q72.49-5.81 73.45-5.81L73.45-5.81Q74.42-5.81 75.25-5.12L75.25-5.12Q75.58-5.72 76.30-5.72L76.30-5.72Q76.94-5.72 77.30-5.44Q77.66-5.16 77.66-4.40L77.66-4.40L77.66-1.28Q77.66-0.56 77.36-0.28Q77.06 0 76.31 0L76.31 0Q75.52 0 75.26-0.44L75.26-0.44Q74.50 0.07 73.45 0.07ZM85.01-3.38L85.01-3.38Q85.01-1.33 84.89-0.52L84.89-0.52Q84.79 0.22 84.59 0.75Q84.38 1.28 84.01 1.70Q83.64 2.11 83.06 2.32Q82.49 2.52 81.70 2.52L81.70 2.52Q81.06 2.52 80.51 2.33Q79.97 2.15 79.65 1.88Q79.33 1.61 79.15 1.34Q78.97 1.08 78.97 0.89Q78.97 0.70 79.10 0.53Q79.22 0.37 79.44 0.37L79.44 0.37Q79.60 0.37 79.81 0.47Q80.02 0.56 80.21 0.68Q80.40 0.80 80.66 0.90Q80.93 1.00 81.18 1.00L81.18 1.00Q81.83 1.00 82.10 0.67Q82.37 0.35 82.37-0.25L82.37-0.25Q82.16-0.17 81.97-0.11Q81.78-0.05 81.60-0.01Q81.42 0.02 81.26 0.04Q81.10 0.05 80.94 0.05L80.94 0.05Q80.23 0.05 79.73-0.35Q79.22-0.74 79.00-1.33Q78.78-1.91 78.78-2.58L78.78-2.58Q78.78-3.25 78.80-3.72Q78.82-4.19 78.88-4.55Q78.94-4.92 79.01-5.14Q79.09-5.35 79.24-5.49Q79.38-5.63 79.56-5.68Q79.74-5.72 79.99-5.72L79.99-5.72Q80.75-5.72 81.05-5.47Q81.36-5.21 81.36-4.66L81.36-4.66L81.37-2.72Q81.37-2.53 81.37-2.44Q81.37-2.35 81.39-2.22Q81.41-2.09 81.44-2.03Q81.47-1.97 81.52-1.90Q81.58-1.84 81.67-1.81Q81.76-1.79 81.89-1.79L81.89-1.79Q82.25-1.79 82.34-1.99Q82.43-2.18 82.43-2.71L82.43-2.71L82.44-4.66Q82.44-5.03 82.57-5.26Q82.69-5.48 82.99-5.60Q83.29-5.72 83.81-5.72L83.81-5.72Q84.12-5.72 84.34-5.62Q84.56-5.52 84.70-5.36Q84.83-5.20 84.89-4.88Q84.96-4.56 84.98-4.24Q85.01-3.91 85.01-3.38Z" transform="translate(-0.5640000000000001, 8.28)"/></g></g></g></g><defs v-gra="od"/>
  </svg>
</svg>


