<svg xmlns="http://www.w3.org/2000/svg" width="1164" height="49" viewBox="0 0 1164 49" fill="none"><path d="M25.312 18.6227C34.5538 18.7542 43.8006 18.5353 53.0017 18.4751L64.2448 18.2528L113.864 17.143C133.486 16.6789 153.253 16.1956 173.166 15.6932L257.91 13.4268L277.314 13.0339L326.673 11.9204L376.028 11.0299C382.496 10.8989 389.052 10.7055 395.389 10.6364L474.122 9.94059L522.56 9.51469C528.851 9.60415 535.191 9.34397 541.527 9.37037L617.598 9.68776L692.716 9.92789C699.354 10.0223 705.732 10.113 712.544 10.2099L761.576 10.7479L837.728 11.4804L862.676 11.8352L914.743 12.5756L919.082 12.6373C879.911 12.4625 840.739 12.3088 801.568 12.1765L752.658 12.2453C745.629 12.1454 738.557 12.0448 731.481 12.1671L660.477 12.5588L578.406 13.016C573.807 12.9506 569.203 13.1717 564.645 13.2662L520.888 14.1408L432.203 15.8734C427.864 15.8117 423.52 16.1003 419.178 16.2615L375.758 17.8416L298.209 20.688C291.089 20.9371 283.966 21.3454 276.844 21.69L227.162 24.1684L163.977 27.0598L76.1217 31.4477L55.0158 32.4852C42.4217 33.1023 29.8656 34.1022 17.3118 34.9428C16.963 34.9037 16.6075 34.9196 16.2691 34.9896C15.9307 35.0595 15.6172 35.1819 15.3496 35.3485C15.0821 35.5151 14.8666 35.722 14.7177 35.9555C14.5688 36.1889 14.4899 36.4435 14.4862 36.7021C14.4825 36.9607 14.5542 37.2174 14.6964 37.455C14.8386 37.6925 15.0481 37.9055 15.3108 38.0796C15.5735 38.2538 15.8834 38.385 16.2197 38.4646C16.5559 38.5441 16.9109 38.5702 17.2606 38.541L31.0085 39.1823C30.4048 40.0446 30.0794 40.9987 30.0575 41.9715C30.044 43.7256 30.9746 45.419 32.647 46.6833C34.3193 47.9476 36.5983 48.6806 38.9882 48.723C74.8942 47.5774 110.802 46.3045 146.746 45.5736L240.337 43.7196L343.783 41.5918L376.385 40.9088C379.509 40.9532 382.636 40.7429 385.761 40.7237L552.419 39.9087L641.477 39.4553C652.24 39.4173 662.96 39.3786 673.679 39.4037L844.094 39.8843L917.129 40.0629C937.916 40.1037 958.701 40.3038 979.492 40.0261L1031.01 39.3256C1039.7 39.2261 1048.38 39.1903 1056.71 38.9267L1115.11 36.8589C1114 38.2326 1113.68 39.8761 1114.22 41.4324C1114.76 42.9414 1116.08 44.2406 1117.9 45.0518C1118.83 45.4753 1119.86 45.7554 1120.93 45.8748C1122 45.9941 1123.1 45.9502 1124.14 45.7457C1128.5 44.5655 1132.85 43.3535 1136.91 42.1054L1136.65 42.1017L1137.56 41.8281L1138.65 41.4932L1138.26 41.4877L1145.02 39.5136L1152.12 37.4171C1154.65 36.6249 1157.14 35.673 1159.58 34.7523C1160.93 34.1745 1162.04 33.3479 1162.82 32.3537C1163.59 31.3596 1164 30.2322 1164 29.0824C1164.02 27.6384 1163.39 26.2255 1162.22 25.0589C1161.04 23.8923 1159.39 23.036 1157.5 22.6202C1155.29 22.3022 1153.16 22.0491 1150.95 21.8265L1149.48 21.8056C1148 21.7846 1146.48 21.763 1145.14 21.9668C1141.84 21.9199 1138.53 22.4143 1135.23 22.5266L1127.11 22.857L1105.4 23.6948L1099.76 23.9012C1100.45 23.3394 1100.96 22.6728 1101.26 21.948C1101.61 21.3788 1101.81 20.766 1101.85 20.141L1102.13 18.7755C1102.13 18.1986 1101.99 17.6254 1101.72 17.0817L1102.29 16.8987C1103.65 16.3347 1104.79 15.5302 1105.62 14.5574C1106.36 13.5666 1106.76 12.4585 1106.79 11.3256C1106.79 10.14 1106.37 8.97214 1105.58 7.9324L1104.17 6.57467C1103.07 5.73596 1101.68 5.1232 1100.16 4.79782C1097.39 4.03737 1094.45 3.66081 1091.5 3.68732C1089.11 3.65338 1086.64 3.61822 1084.25 3.74349L1073.75 3.59418C1068.8 3.52384 1063.9 3.45412 1058.95 3.38378L1019.9 2.82848C1007.62 2.65387 995.345 2.47926 983.066 2.30465L949.57 1.82833C905.053 1.19529 860.577 0.75392 816.056 0.4393L715.898 0.161583C700.973 -0.0506646 686.087 -0.00755797 671.157 0.0349315L570.821 0.168693L542.221 0.20788C536.667 0.128904 531.153 0.337124 525.597 0.417358L426.415 1.74593L396.03 2.17377C390.388 2.25277 384.7 2.42668 379.056 2.56937L280.682 5.05598C263.708 5.48342 246.775 6.007 229.799 6.52996L142.748 9.30498C117.61 10.0941 92.473 10.7558 67.3365 11.4175L55.3973 11.7573L36.0785 12.2469C30.3484 12.3565 24.6198 12.3706 18.7203 12.1912C18.4569 11.6311 17.9625 11.1439 17.306 10.7977C16.6495 10.4515 15.8639 10.2635 15.0589 10.26C11.3677 10.4305 7.67562 10.6646 3.9835 10.8987C3.12588 10.9296 2.30229 11.1466 1.61708 11.5224C0.931874 11.8982 0.41589 12.4158 0.134506 13.0097C-0.139681 13.766 0.00701137 14.5739 0.542403 15.2562C1.07779 15.9385 1.95816 16.4394 2.99038 16.6492L7.79476 17.5456C9.39259 17.8108 11.0154 17.983 12.648 18.0605C16.8526 18.4069 21.1038 18.5311 25.312 18.6227ZM1040.75 22.8392L1056.94 23.0693C1057.39 23.9631 1058.13 24.7692 1059.07 25.4247C1056.99 25.5224 1054.91 25.5883 1052.82 25.6224L1041.02 25.773L989.407 26.4086C981.55 26.5198 973.692 26.7265 965.838 26.7104L928.995 26.6005L844.807 26.3906L681.378 25.9775C642.321 25.868 603.259 26.2043 564.198 26.4132L388.165 27.3178C376.403 27.4053 364.594 27.7788 352.829 28.0255L252.725 30.1372L154.487 32.1799L145.371 32.3687L171.86 31.2167L264.395 27.3413L296.702 25.9853L313.374 25.458L409.583 22.654C415.835 22.4563 422.088 22.1948 428.382 22.0933L455.686 21.6216L554.869 20.1975L576.572 19.901C578.481 19.9282 580.39 19.9553 582.343 19.9831L597.662 19.978L697 19.8937C712.233 19.8874 727.379 19.848 742.74 19.9709C791.99 20.3846 841.199 20.7021 890.274 21.2408C940.478 21.6999 990.639 22.1584 1040.8 22.8398L1040.75 22.8392Z" fill="#161616"></path></svg>